HIERARCHY
ROOT hips
{
  OFFSET 0 10.6860622 2.3727825e-15
  CHANNELS 6 Xposition Yposition Zposition Yrotation Xrotation Zrotation
  JOINT leftUpperLeg
  {
    OFFSET 0.6642549969 -0.9402397400000004 0
    CHANNELS 3 Yrotation Xrotation Zrotation
    JOINT leftLowerLeg
    {
      OFFSET 0 -3.997221335632195 0
      CHANNELS 3 Yrotation Xrotation Zrotation
      JOINT leftFoot
      {
        OFFSET -0.13777839790000004 -4.6145792000000005 -0.22186036399999998
        CHANNELS 3 Yrotation Xrotation Zrotation
        JOINT leftToes
        {
          OFFSET -0.03777410834999995 -0.9130806927000008 0.85230013
          CHANNELS 3 Yrotation Xrotation Zrotation
          End Site
          {
            OFFSET -0.03777410834999995 -0.9130806927000008 0.85230013
          }
        }
      }
    }
  }
  JOINT rightUpperLeg
  {
    OFFSET -0.6642778626 -0.9402397400000004 0
    CHANNELS 3 Yrotation Xrotation Zrotation
    JOINT rightLowerLeg
    {
      OFFSET 0 -3.997221452859387 0
      CHANNELS 3 Yrotation Xrotation Zrotation
      JOINT rightFoot
      {
        OFFSET 0.1377926176 -4.6145792000000005 -0.22185782299999995
        CHANNELS 3 Yrotation Xrotation Zrotation
        JOINT rightToes
        {
          OFFSET 0.037780746850000047 -0.9130806927000008 0.85230167
          CHANNELS 3 Yrotation Xrotation Zrotation
          End Site
          {
            OFFSET 0.037780746850000047 -0.9130806927000008 0.85230167
          }
        }
      }
    }
  }
  JOINT spine
  {
    OFFSET 0 0.13988381660000015 0
    CHANNELS 3 Yrotation Xrotation Zrotation
    JOINT chest
    {
      OFFSET 0 0.6191039003973773 0
      CHANNELS 3 Yrotation Xrotation Zrotation
      JOINT upperChest
      {
        OFFSET 0 0.9855186130586943 0
        CHANNELS 3 Yrotation Xrotation Zrotation
        JOINT leftShoulder
        {
          OFFSET 0.1807663869 1.5087829790000005 0
          CHANNELS 3 Yrotation Xrotation Zrotation
          JOINT leftUpperArm
          {
            OFFSET 0.5985063006419806 0 0
            CHANNELS 3 Yrotation Xrotation Zrotation
            JOINT leftLowerArm
            {
              OFFSET 2.2993332369501065 0 0
              CHANNELS 3 Yrotation Xrotation Zrotation
              JOINT leftHand
              {
                OFFSET 2.395047042602395 0 0
                CHANNELS 3 Yrotation Xrotation Zrotation
                JOINT leftIndexProximal
                {
                  OFFSET 0.5766295810000004 0.04556643899499946 0.17265095988184
                  CHANNELS 3 Yrotation Xrotation Zrotation
                  JOINT leftIndexIntermediate
                  {
                    OFFSET 0.2957229000000008 -0.019352197700001517 -0.007932640616999987
                    CHANNELS 3 Yrotation Xrotation Zrotation
                    JOINT leftIndexDistal
                    {
                      OFFSET 0.19008243099999922 -0.012484908149998475 -0.002786250786000012
                      CHANNELS 3 Yrotation Xrotation Zrotation
                      End Site
                      {
                        OFFSET 0.19008243099999922 -0.012484908149998475 -0.002786250786000012
                      }
                    }
                  }
                }
                JOINT leftMiddleProximal
                {
                  OFFSET 0.5834975091000001 0.0524350405149987 0.02204081888183999
                  CHANNELS 3 Yrotation Xrotation Zrotation
                  JOINT leftMiddleIntermediate
                  {
                    OFFSET 0.33880573540000003 -0.019871473270000717 -0.00000971183179999946
                    CHANNELS 3 Yrotation Xrotation Zrotation
                    JOINT leftMiddleDistal
                    {
                      OFFSET 0.20676022730000088 -0.012221336379999448 0.0001471936708000235
                      CHANNELS 3 Yrotation Xrotation Zrotation
                      End Site
                      {
                        OFFSET 0.20676022730000088 -0.012221336379999448 0.0001471936708000235
                      }
                    }
                  }
                }
                JOINT leftLittleProximal
                {
                  OFFSET 0.5344154683999995 -0.012880921405001189 -0.24414037221816004
                  CHANNELS 3 Yrotation Xrotation Zrotation
                  JOINT leftLittleIntermediate
                  {
                    OFFSET 0.21758961730000093 -0.011650919939999227 0.011893592810000034
                    CHANNELS 3 Yrotation Xrotation Zrotation
                    JOINT leftLittleDistal
                    {
                      OFFSET 0.1475273964999999 -0.008152365682999818 0.006001092492999946
                      CHANNELS 3 Yrotation Xrotation Zrotation
                      End Site
                      {
                        OFFSET 0.1475273964999999 -0.008152365682999818 0.006001092492999946
                      }
                    }
                  }
                }
                JOINT leftRingProximal
                {
                  OFFSET 0.5799399463000003 0.026911854694997794 -0.12150566991816003
                  CHANNELS 3 Yrotation Xrotation Zrotation
                  JOINT leftRingIntermediate
                  {
                    OFFSET 0.26167887460000006 -0.013480186499999602 0.010996293000000053
                    CHANNELS 3 Yrotation Xrotation Zrotation
                    JOINT leftRingDistal
                    {
                      OFFSET 0.17667108799999987 -0.008990287899999228 0.0055541023999999065
                      CHANNELS 3 Yrotation Xrotation Zrotation
                      End Site
                      {
                        OFFSET 0.17667108799999987 -0.008990287899999228 0.0055541023999999065
                      }
                    }
                  }
                }
                JOINT leftThumbProximal
                {
                  OFFSET 0.11018806699999972 -0.09448718900500053 0.17047963138184
                  CHANNELS 3 Yrotation Xrotation Zrotation
                  JOINT leftThumbIntermediate
                  {
                    OFFSET 0.31062601459999983 -0.08126270900000132 0.15443142000000007
                    CHANNELS 3 Yrotation Xrotation Zrotation
                    JOINT leftThumbDistal
                    {
                      OFFSET 0.21627175790000086 -0.08833193599999878 0.018771167799999988
                      CHANNELS 3 Yrotation Xrotation Zrotation
                      End Site
                      {
                        OFFSET 0.21627175790000086 -0.08833193599999878 0.018771167799999988
                      }
                    }
                  }
                }
              }
            }
          }
        }
        JOINT neck
        {
          OFFSET 0 1.5463305265074576 0
          CHANNELS 3 Yrotation Xrotation Zrotation
          JOINT head
          {
            OFFSET 0 0.8456443600000344 0
            CHANNELS 3 Yrotation Xrotation Zrotation
            JOINT leftEye
            {
              OFFSET 0.30408573140000006 0.5104519199999995 0.1276382305
              CHANNELS 3 Yrotation Xrotation Zrotation
              End Site
              {
                OFFSET 0.30408573140000006 0.5104519199999995 0.1276382305
              }
            }
            JOINT rightEye
            {
              OFFSET -0.30409491089999996 0.5104519199999995 0.1276379445
              CHANNELS 3 Yrotation Xrotation Zrotation
              End Site
              {
                OFFSET -0.30409491089999996 0.5104519199999995 0.1276379445
              }
            }
            JOINT jaw
            {
              OFFSET -3.155239131000001e-7 -0.11984121820000082 0.60178107
              CHANNELS 3 Yrotation Xrotation Zrotation
              End Site
              {
                OFFSET -3.155239131000001e-7 -0.11984121820000082 0.60178107
              }
            }
          }
        }
        JOINT rightShoulder
        {
          OFFSET -0.1807303465 1.5087829790000005 0
          CHANNELS 3 Yrotation Xrotation Zrotation
          JOINT rightUpperArm
          {
            OFFSET -0.5985063796536958 0 0
            CHANNELS 3 Yrotation Xrotation Zrotation
            JOINT rightLowerArm
            {
              OFFSET -2.2993322059002854 0 0
              CHANNELS 3 Yrotation Xrotation Zrotation
              JOINT rightHand
              {
                OFFSET -2.395045314457259 0 0
                CHANNELS 3 Yrotation Xrotation Zrotation
                JOINT rightIndexProximal
                {
                  OFFSET -0.5764487688300002 0.0441371204405987 0.17361932004999997
                  CHANNELS 3 Yrotation Xrotation Zrotation
                  JOINT rightIndexIntermediate
                  {
                    OFFSET -0.29573011380000047 -0.01934826376999843 -0.007698921482999974
                    CHANNELS 3 Yrotation Xrotation Zrotation
                    JOINT rightIndexDistal
                    {
                      OFFSET -0.19008373999999884 -0.012503266380000655 -0.0026365778999999897
                      CHANNELS 3 Yrotation Xrotation Zrotation
                      End Site
                      {
                        OFFSET -0.19008373999999884 -0.012503266380000655 -0.0026365778999999897
                      }
                    }
                  }
                }
                JOINT rightMiddleProximal
                {
                  OFFSET -0.5834852037300005 0.05211639405060153 0.02307162440000001
                  CHANNELS 3 Yrotation Xrotation Zrotation
                  JOINT rightMiddleIntermediate
                  {
                    OFFSET -0.33880114510000003 -0.019952774050000954 0.0002455003561999819
                    CHANNELS 3 Yrotation Xrotation Zrotation
                    JOINT rightMiddleDistal
                    {
                      OFFSET -0.20675694929999955 -0.012273788999999091 0.00030209124000002766
                      CHANNELS 3 Yrotation Xrotation Zrotation
                      End Site
                      {
                        OFFSET -0.20675694929999955 -0.012273788999999091 0.00030209124000002766
                      }
                    }
                  }
                }
                JOINT rightLittleProximal
                {
                  OFFSET -0.5346811737299992 -0.011214256288399227 -0.24363941305000003
                  CHANNELS 3 Yrotation Xrotation Zrotation
                  JOINT rightLittleIntermediate
                  {
                    OFFSET -0.21757715980000092 -0.011771559690000988 0.01201554387
                    CHANNELS 3 Yrotation Xrotation Zrotation
                    JOINT rightLittleDistal
                    {
                      OFFSET -0.1475201849000004 -0.00822055339600003 0.006082065407000015
                      CHANNELS 3 Yrotation Xrotation Zrotation
                      End Site
                      {
                        OFFSET -0.1475201849000004 -0.00822055339600003 0.006082065407000015
                      }
                    }
                  }
                }
                JOINT rightRingProximal
                {
                  OFFSET -0.5800810755299999 0.027657985680600072 -0.12066365025000003
                  CHANNELS 3 Yrotation Xrotation Zrotation
                  JOINT rightRingIntermediate
                  {
                    OFFSET -0.26166445029999974 -0.013623118409999302 0.011164098990000045
                    CHANNELS 3 Yrotation Xrotation Zrotation
                    JOINT rightRingDistal
                    {
                      OFFSET -0.17666387530000027 -0.009072900100000503 0.005668185599999959
                      CHANNELS 3 Yrotation Xrotation Zrotation
                      End Site
                      {
                        OFFSET -0.17666387530000027 -0.009072900100000503 0.005668185599999959
                      }
                    }
                  }
                }
                JOINT rightThumbProximal
                {
                  OFFSET -0.10997596379000074 -0.09577489355940072 0.16989765924999997
                  CHANNELS 3 Yrotation Xrotation Zrotation
                  JOINT rightThumbIntermediate
                  {
                    OFFSET -0.31036620999999986 -0.08229339117999834 0.15440884469999996
                    CHANNELS 3 Yrotation Xrotation Zrotation
                    JOINT rightThumbDistal
                    {
                      OFFSET -0.21631306399999906 -0.08825326400000111 0.018656797720000014
                      CHANNELS 3 Yrotation Xrotation Zrotation
                      End Site
                      {
                        OFFSET -0.21631306399999906 -0.08825326400000111 0.018656797720000014
                      }
                    }
                  }
                }
              }
            }
          }
        }
      }
    }
  }
}
MOTION
Frames: 10
Frame Time: 0.03333333333333333
0 11.682712981546562 0 0 0 0 0 0 -5.826343164929014 -0.3712483961610101 -3.6333298826370974 5.838118207697276 0 0 0 0 0 0 0 0 5.826343164929014 0.3712483961610101 -3.6333298826370974 -5.838118207697276 0 0 0 0 0 0 0 -4.610651315171937 0 0 3.0831277533083026 0 0 0 0 0 1.5275236235667615 0 0 0 0 0 0 0 0 0 0 0 0 0 0 0 0 0 0 0 0 0 0 0 0 0 0 0 0 0 0 0 0 0 0 0 0 0 0 0 0 0 0 0 0 0 0 0 0 0 0 0 0 0 0 0 0 1.5275236235667615 0 0 0 0 0 0 0 0 0 0 0 0 0 0 1.5275236235667615 0 0 0 0 0 0 0 0 0 0 0 0 0 0 0 0 0 0 0 0 0 0 0 0 0 0 0 0 0 0 0 0 0 0 0 0 0 0 0 0 0 0 0 0 0 0 0 0 0 0 0 0 0 0 0
5.366740723532839 -10.313462304046588 0.14591602096416081 0 -72.00106536987305 0 178.67808817723665 -18.39331994691182 -135.39231391064197 -148.65497719704786 60.1476345175276 -150.89488424384822 10.470677193526596 56.592724035776584 11.99912633948563 0 0 0 179.99388106929177 -33.98788945499684 139.8271643374051 -164.76108743000498 69.90893454378646 -168.70307850621646 -10.492122526919736 56.618343445182354 -12.038542133654492 0 0 0 -0.005966406322863195 -12.073508701812877 0.04103874060525114 -0.5874286913056431 19.552316674456918 -0.2776309077408701 0 0 0 -28.84137808368245 19.417671418051363 -23.055380693648264 -9.69046614354451 2.322473163067355 -41.90761331355026 -8.891966501878597 10.478305860877027 -1.7556870056120588 -25.962054530586855 33.78010027763681 -17.257154867502447 0 0 0 0 0 0 0 0 0 0 0 0 0 0 0 0 0 0 0 0 0 0 0 0 0 0 0 0 0 0 0 0 0 0 0 0 0 0 0 0 0 0 0 0 0 0 19.52587217553456 0 0 8.99856659418915 0 0 0 0 0 0 0 0 0 0 29.05272360511905 19.211151904449792 24.192206567920724 9.548507894792632 2.4666823936779685 41.16305528032964 8.688111463594678 10.49556720710266 1.4528201609070759 26.390657183852653 33.675182006837005 17.56335244367097 0 0 0 0 0 0 0 0 0 0 0 0 0 0 0 0 0 0 0 0 0 0 0 0 0 0 0 0 0 0 0 0 0 0 0 0 0 0 0 0 0 0 0 0 0
5.366740723532839 -10.309431588916114 0.16418950875603505 0 -72.8875554024905 0 178.66705321722435 -19.205443376673934 -135.98650696288544 -149.8539757356192 60.16816167267092 -151.9725276435921 10.470677193526596 56.592724035776584 11.99912633948563 0 0 0 179.99376884258214 -33.98799654285718 139.60504609321325 -161.6474018829826 68.74191373765154 -166.47372026816595 -10.492122526919736 56.618343445182354 -12.038542133654492 0 0 0 -0.005966406322863195 -12.073508701812877 0.04103874060525114 -0.5914992342173484 20.65864308218535 -0.28969126763910863 0 0 0 -28.47803767935587 19.35720009271247 -21.45662714386098 -9.781413575047354 2.295452554348493 -42.76897210763351 -10.066415853903 10.442903138280819 -2.359224822175322 -25.236371049044678 33.6853516319657 -17.3653480799823 0 0 0 0 0 0 0 0 0 0 0 0 0 0 0 0 0 0 0 0 0 0 0 0 0 0 0 0 0 0 0 0 0 0 0 0 0 0 0 0 0 0 0 0 0 0 19.14418635304713 0 0 8.424144850948126 0 0 0 0 0 0 0 0 0 0 28.686612079111917 19.15369412573723 22.55081020521315 9.656941351881324 2.4265192741860795 42.081378171243244 9.844861163859079 10.464972389895873 2.0580466713532 25.65831533999758 33.58746450731938 17.65725298582038 0 0 0 0 0 0 0 0 0 0 0 0 0 0 0 0 0 0 0 0 0 0 0 0 0 0 0 0 0 0 0 0 0 0 0 0 0 0 0 0 0 0 0 0 0
5.366740723532839 -10.305400605393368 0.1824629965479093 0 -73.77488124175434 0 178.66492813829245 -20.018665539764694 -136.58427748469336 -151.0546186794378 60.17743775615124 -153.0517721429775 10.470677193526596 56.592724035776584 11.99912633948563 0 0 0 179.99365781681675 -33.98812010594063 139.38291296811843 -158.80110759504058 67.53101826034833 -164.51856362714454 -10.492120266379695 56.61833723832861 -12.03854008029965 0 0 0 -0.005966406322863195 -12.073508701812877 0.04103874060525114 -0.5958574328272506 21.766628899574357 -0.3019455917083209 0 0 0 -28.115730230183207 19.286974620937723 -19.854386571463802 -9.872028224154555 2.2670442004470828 -43.6310518727045 -11.242412125366926 10.395247750449718 -2.962921405443963 -24.51071019090197 33.59167894277416 -17.474943712954033 0 0 0 0 0 0 0 0 0 0 0 0 0 0 0 0 0 0 0 0 0 0 0 0 0 0 0 0 0 0 0 0 0 0 0 0 0 0 0 0 0 0 0 0 0 0 18.76222521852196 0 0 7.848782112547739 0 0 0 0 0 0 0 0 0 0 28.321422549035105 19.086137545742023 20.905500262276135 9.76482171467408 2.384579103743052 43.00054456124573 11.00314470291612 10.422287774877727 2.6635289716024273 24.92597262920186 33.500679752910756 17.752469444244458 0 0 0 0 0 0 0 0 0 0 0 0 0 0 0 0 0 0 0 0 0 0 0 0 0 0 0 0 0 0 0 0 0 0 0 0 0 0 0 0 0 0 0 0 0
5.366740723532839 -10.301369890262894 0.20073648433978353 0 -74.6629623966652 0 178.67188546442662 -20.832742660304685 -137.18585796280678 -152.2560005099356 60.17546697005542 -154.13171119072425 10.470677193526596 56.592724035776584 11.99912633948563 0 0 0 179.99354965507305 -33.98824366920374 139.16076600724884 -156.1902695082038 66.2827573434505 -162.8056421685111 -10.492125182959114 56.618349652037125 -12.038546999159347 0 0 0 -0.005966406322863195 -12.073508701812877 0.04103874060525114 -0.6005135050910633 22.876082490106764 -0.31440568509040123 0 0 0 -27.754922756958358 19.20701831022071 -18.249376812672104 -9.962274455991773 2.2372492446138765 -44.493769310028746 -12.419516152273019 10.335315774341002 -3.566357455731578 -23.78512070364936 33.49910712189625 -17.585909183545443 0 0 0 0 0 0 0 0 0 0 0 0 0 0 0 0 0 0 0 0 0 0 0 0 0 0 0 0 0 0 0 0 0 0 0 0 0 0 0 0 0 0 0 0 0 0 18.380007926107645 0 0 7.272513173855758 0 0 0 0 0 0 0 0 0 0 27.95764962325488 19.00848902481489 19.257049236255096 9.872106216493261 2.340878899858403 43.920419527100144 12.162533337719395 10.367478389288014 3.2688596384915276 24.19369550304597 33.414857469935235 17.848978357041982 0 0 0 0 0 0 0 0 0 0 0 0 0 0 0 0 0 0 0 0 0 0 0 0 0 0 0 0 0 0 0 0 0 0 0 0 0 0 0 0 0 0 0 0 0
5.366740723532839 -10.297338906740148 0.2190099721316578 0 -75.55168781179847 0 178.68809234748235 -21.64747934103156 -137.79144544104406 -153.45719130618932 60.16225820180833 -155.21141049895598 10.470677193526596 56.592724035776584 11.99912633948563 0 0 0 179.9934418646678 -33.98838370778579 138.93863528455458 -153.78628478167374 65.0027031198654 -161.3063167795264 -10.492124052688574 56.618343445182354 -12.038545704597416 0 0 0 -0.005966406322863195 -12.073508701812877 0.04103874060525114 -0.6054791435721062 23.986782038099886 -0.3270832832850044 0 0 0 -27.39604772662619 19.117350635975804 -16.64230960195252 -10.05211916487568 2.206080579939413 -45.35700346229292 -13.597286679661519 10.263099434239276 -4.169118259011497 -23.059663587076606 33.40766103303016 -17.69821665508855 0 0 0 0 0 0 0 0 0 0 0 0 0 0 0 0 0 0 0 0 0 0 0 0 0 0 0 0 0 0 0 0 0 0 0 0 0 0 0 0 0 0 0 0 0 0 17.997526421018517 0 0 6.69536384875495 0 0 0 0 0 0 0 0 0 0 27.595751714579762 18.920777012542644 17.606228807482506 9.978756280337361 2.2954247844220355 44.840917942398015 13.322598965466721 10.300542750569488 3.873633208804342 23.46154200842929 33.330023223937644 17.94675462770998 0 0 0 0 0 0 0 0 0 0 0 0 0 0 0 0 0 0 0 0 0 0 0 0 0 0 0 0 0 0 0 0 0 0 0 0 0 0 0 0 0 0 0 0 0
5.366740723532839 -10.293308191609674 0.237283459923532 0 -76.44093475218683 0 178.71373502816152 -22.462644415594927 -138.40125766579243 -154.65731375022912 60.13776326224642 -156.29000296682258 10.470677193526596 56.592724035776584 11.99912633948563 0 0 0 179.99333200986788 -33.98849491505946 138.71646272381474 -151.56385986161564 63.69564171297624 -159.9952612988802 -10.492122526919736 56.618343445182354 -12.038542133654492 0 0 0 -0.005966406322863195 -12.073508701812877 0.04103874060525114 -0.6107658918336208 25.098531714654822 -0.33999365831424877 0 0 0 -27.039525277987707 19.01802332779972 -15.033895109816523 -10.141531053765544 2.1735459736387854 -46.22064890843842 -14.77528059201828 10.178610517725465 -4.770783028366165 -22.33440037731974 33.31736958214283 -17.81184263223959 0 0 0 0 0 0 0 0 0 0 0 0 0 0 0 0 0 0 0 0 0 0 0 0 0 0 0 0 0 0 0 0 0 0 0 0 0 0 0 0 0 0 0 0 0 0 17.614803069247355 0 0 6.117360073922082 0 0 0 0 0 0 0 0 0 0 27.23617983319906 18.82304783656158 15.953796396613898 10.084728630834933 2.248234627186641 45.761895809457734 14.482917943904914 10.221487642110496 4.477440317025562 22.72958147743587 33.24621069371089 18.045778627777917 0 0 0 0 0 0 0 0 0 0 0 0 0 0 0 0 0 0 0 0 0 0 0 0 0 0 0 0 0 0 0 0 0 0 0 0 0 0 0 0 0 0 0 0 0
5.366740723532839 -10.289277208086927 0.25555694771540627 0 -77.33064211279856 0 178.7489990856277 -23.278006601719262 -139.01551683519872 -155.85545478795115 60.10205529192384 -157.36656624170027 10.470677193526596 56.592724035776584 11.99912633948563 0 0 0 179.99322421322316 -33.988626716461134 138.4943140074611 -149.50087091644306 62.36574400356212 -158.85030694638561 -10.492121396649596 56.618343445182354 -12.038540839093338 0 0 0 -0.005966406322863195 -12.073508701812877 0.04103874060525114 -0.6163850198350592 26.211116155264058 -0.35314808818955035 0 0 0 -26.685818060394908 18.909123824432452 -13.424860661796327 -10.230482583877587 2.139650416790707 -47.08463460716341 -15.953060179696655 10.081877697730038 -5.3709382600549995 -21.609392386434287 33.228249369718576 -17.926753872668314 0 0 0 0 0 0 0 0 0 0 0 0 0 0 0 0 0 0 0 0 0 0 0 0 0 0 0 0 0 0 0 0 0 0 0 0 0 0 0 0 0 0 0 0 0 0 17.231851004273036 0 0 5.538527936698915 0 0 0 0 0 0 0 0 0 0 26.87943701331919 18.715389025872216 14.300550702569527 10.189977995175862 2.199322877492406 46.68323199066872 15.643048958733612 10.130334128066439 5.079875367859172 21.99785490301614 33.163420840014325 18.14601439961431 0 0 0 0 0 0 0 0 0 0 0 0 0 0 0 0 0 0 0 0 0 0 0 0 0 0 0 0 0 0 0 0 0 0 0 0 0 0 0 0 0 0 0 0 0
5.366740723532839 -10.285246492956453 0.2738304355072805 0 -78.22064877704837 0 178.79408253542726 -24.093362037870126 -139.6344634998573 -157.0507597041228 60.05512964165274 -158.4402515384233 10.470677193526596 56.592724035776584 11.99912633948563 0 0 0 179.99311929167226 -33.988750280460856 138.2721326789664 -147.5780012293949 61.016693890462285 -157.85208530296129 -10.492120266379695 56.61833723832861 -12.03854008029965 0 0 0 -0.005966406322863195 -12.073508701812877 0.04103874060525114 -0.6223496966504322 27.324331212847216 -0.3665623276549688 0 0 0 -26.33534954747249 18.79074982561774 -11.81592628314605 -10.318941895928633 2.1044061629432 -47.94883710457822 -17.13018150870237 9.972950776110997 -5.969168788044305 -20.884687127384137 33.140325149191426 -18.042919974622492 0 0 0 0 0 0 0 0 0 0 0 0 0 0 0 0 0 0 0 0 0 0 0 0 0 0 0 0 0 0 0 0 0 0 0 0 0 0 0 0 0 0 0 0 0 0 16.848663526865135 0 0 4.958897131355768 0 0 0 0 0 0 0 0 0 0 26.525941887023208 18.59789126309688 12.647248122177261 10.294465371469144 2.1487039816023144 47.6048158214229 16.802580042023024 10.027130480239615 5.680535831145222 21.266423432184883 33.08167912342273 18.247433189835952 0 0 0 0 0 0 0 0 0 0 0 0 0 0 0 0 0 0 0 0 0 0 0 0 0 0 0 0 0 0 0 0 0 0 0 0 0 0 0 0 0 0 0 0 0
5.366740723532839 -10.281215509433707 0.2921036549068834 0 -79.11086987931398 0 178.84918353664537 -24.90849889242794 -140.25835426225902 -158.2423140257602 59.99704770885173 -159.51014549232525 10.4706794807863 56.592724035776584 11.999127856266256 0 0 0 179.99300831225887 -33.98886972583138 138.0499557910855 -145.77855283523306 59.6516802712632 -156.9838610465301 -10.492122526919736 56.618343445182354 -12.038542133654492 0 0 0 -0.005966406322863195 -12.073508701812877 0.04103874060525114 -0.6286763957494994 28.437964087764186 -0.3802520622781236 0 0 0 -25.9885266294669 18.663014568288965 -10.20779564771062 -10.406876783392851 2.067824397238749 -48.813171491206695 -18.306213681792478 9.851894502536414 -6.56506565027013 -20.160352069475604 33.05361756531923 -18.160310899102694 0 0 0 0 0 0 0 0 0 0 0 0 0 0 0 0 0 0 0 0 0 0 0 0 0 0 0 0 0 0 0 0 0 0 0 0 0 0 0 0 0 0 0 0 0 0 16.465258823694175 0 0 4.378494979858504 0 0 0 0 0 0 0 0 0 0 26.1761512137181 18.470680681601124 10.994661998854754 10.398148668484287 2.0963994303331854 48.52651307972864 17.96107413740944 9.911931260622989 6.279019260642782 20.53536264400661 33.00101910359777 18.350020145104917 0 0 0 0 0 0 0 0 0 0 0 0 0 0 0 0 0 0 0 0 0 0 0 0 0 0 0 0 0 0 0 0 0 0 0 0 0 0 0 0 0 0 0 0 0
